<svg xmlns="http://www.w3.org/2000/svg" viewBox="0 0 512 512">
  <!-- Background -->
  <rect width="512" height="512" rx="80" fill="#1e3a8a"/>
  
  <!-- Decorative accent circle -->
  <circle cx="256" cy="256" r="200" fill="none" stroke="#f59e0b" stroke-width="3" opacity="0.3"/>
  
  <!-- Main monogram container -->
  <g transform="translate(256, 256)">
    <!-- Letter S -->
    <path d="M -110 -60 Q -110 -90 -80 -90 L -40 -90 Q -10 -90 -10 -60 Q -10 -40 -30 -35 L -70 -25 Q -90 -20 -90 0 Q -90 20 -70 20 L -30 20 Q -10 20 -10 40 Q -10 60 -30 60 L -70 60 Q -100 60 -100 30 Q -100 10 -80 5 L -40 -5 Q -20 -10 -20 -30 Q -20 -50 -40 -50 L -80 -50 Q -100 -50 -100 -30 Z" 
          fill="#f59e0b" 
          stroke="#f59e0b" 
          stroke-width="8"/>
    
    <!-- Letter T -->
    <path d="M 10 -90 L 90 -90 L 90 -50 L 70 -50 L 70 60 L 30 60 L 30 -50 L 10 -50 Z" 
          fill="#f59e0b"/>
    
    <!-- Letter E -->
    <path d="M 110 -90 L 200 -90 L 200 -50 L 150 -50 L 150 -20 L 190 -20 L 190 20 L 150 20 L 150 60 L 110 60 Z" 
          fill="#f59e0b"/>
  </g>
  
  <!-- Subtle checkmark accent -->
  <path d="M 380 140 L 410 170 L 460 100" 
        fill="none" 
        stroke="#f59e0b" 
        stroke-width="12" 
        stroke-linecap="round" 
        stroke-linejoin="round" 
        opacity="0.4"/>
</svg>
